<svg width="37" height="38" viewBox="0 0 37 38" fill="none" xmlns="http://www.w3.org/2000/svg">
<path d="M9.75272 26.663C9.59613 26.663 9.43659 26.6481 9.28001 26.6184C8.62118 26.491 8.03326 26.0908 7.66691 25.5247C6.27538 23.3608 5.56927 21.1584 5.56927 18.9766C5.56927 11.9751 11.2477 6.27789 18.226 6.27789C24.569 6.27789 29.9668 11.0444 30.7792 17.3641C30.8915 18.2445 30.2711 19.0508 29.3936 19.1665C28.5131 19.2819 27.7125 18.6565 27.5973 17.7761C26.9887 13.0541 22.9589 9.49408 18.2231 9.49408C13.0114 9.49408 8.77186 13.7478 8.77186 18.9766C8.77186 20.3255 9.17366 21.7215 9.96839 23.1356L11.7617 21.8697C10.5386 18.9915 11.3304 15.642 13.8682 13.4098L14.0484 13.2705C16.4769 11.6846 19.3369 11.5038 21.7063 12.7933C24.0225 14.0531 25.4612 16.466 25.4612 19.0893C25.4612 20.0735 25.2604 21.0368 24.8764 21.932L27.3994 23.7431C28.1203 24.2589 28.2858 25.2638 27.7717 25.987C27.2576 26.7103 26.256 26.8764 25.5351 26.3606L22.1878 23.9596C21.3044 23.3253 21.0651 22.1158 21.6443 21.2028C22.0431 20.5714 22.2558 19.8423 22.2558 19.0922C22.2558 17.6517 21.4581 16.3236 20.1788 15.6241C18.87 14.9126 17.316 15.0195 15.895 15.9087C14.0661 17.5835 14.1193 19.7503 14.9997 21.1702C15.5729 22.0951 15.3158 23.3074 14.4177 23.9328L11.1856 26.2153C10.7631 26.5117 10.2579 26.6688 9.74976 26.6688L9.75272 26.663ZM12.5889 21.2888C12.5889 21.2888 12.5801 21.2947 12.5771 21.2977L12.5889 21.2888Z" fill="url(#paint0_linear_11_42)"/>
<path d="M31.878 37.2693C31.6328 37.2693 31.3877 37.2308 31.1454 37.1536L25.981 35.461C23.5555 36.6142 20.8699 37.2219 18.1843 37.2219C8.15712 37.2248 0 29.0406 0 18.98C0 17.1421 0.277714 15.3221 0.82428 13.5732C1.00154 13.01 1.2054 12.4498 1.43584 11.9043C1.78151 11.0862 2.72396 10.7068 3.53939 11.0536C4.3548 11.4004 4.73296 12.346 4.3873 13.1641C4.19822 13.6117 4.02685 14.0742 3.88209 14.5366C3.43302 15.9742 3.20553 17.4682 3.20553 18.98C3.20553 27.2679 9.92385 34.0086 18.1843 34.0086C20.4917 34.0086 22.8021 33.4633 24.8643 32.4317C25.4226 32.153 26.0548 32.1056 26.6428 32.2983L30.6343 33.6055L29.6889 30.1581C29.4967 29.4556 29.6446 28.6849 30.0906 28.098C31.9725 25.6258 33.0302 22.6735 33.1514 19.5639C33.1868 18.6776 33.9284 17.984 34.8147 18.0196C35.6982 18.0551 36.3894 18.8021 36.354 19.6884C36.2122 23.3225 35.0186 26.7789 32.8914 29.7105L34.1471 34.2813C34.3775 35.1202 34.1293 36.0154 33.5029 36.6171C33.0569 37.044 32.4748 37.2693 31.878 37.2693Z" fill="url(#paint1_linear_11_42)"/>
<path d="M33.0066 13.2382C32.4156 13.2382 31.8455 12.9092 31.5678 12.34C29.5056 8.14267 25.5408 5.10729 20.9615 4.22099C16.6539 3.39101 12.2164 4.48778 8.78635 7.23266C8.09503 7.78696 7.08461 7.67432 6.5351 6.97773C5.98262 6.28409 6.09489 5.27033 6.78918 4.71899C10.949 1.38422 16.3378 0.0503161 21.5671 1.06112C27.1273 2.13417 31.9429 5.81871 34.4454 10.9172C34.8354 11.7146 34.5104 12.678 33.7156 13.0692C33.4882 13.1819 33.246 13.2352 33.0095 13.2352L33.0066 13.2382Z" fill="url(#paint2_linear_11_42)"/>
<defs>
<linearGradient id="paint0_linear_11_42" x1="26.6904" y1="27.1076" x2="9.40598" y2="9.88052" gradientUnits="userSpaceOnUse">
<stop stop-color="#F05523"/>
<stop offset="1" stop-color="#F9A619"/>
</linearGradient>
<linearGradient id="paint1_linear_11_42" x1="32.7555" y1="37.3672" x2="4.23084" y2="8.93702" gradientUnits="userSpaceOnUse">
<stop stop-color="#F05523"/>
<stop offset="1" stop-color="#F9A619"/>
</linearGradient>
<linearGradient id="paint2_linear_11_42" x1="29.5529" y1="17.3704" x2="11.8002" y2="-0.32351" gradientUnits="userSpaceOnUse">
<stop stop-color="#F05523"/>
<stop offset="1" stop-color="#F9A619"/>
</linearGradient>
</defs>
</svg>
