<svg width="185" height="38" viewBox="0 0 185 38" fill="none" xmlns="http://www.w3.org/2000/svg">
<g clip-path="url(#clip0_11_20)">
<path d="M47.4776 28.5192C46.0979 28.0982 45.0048 27.538 44.2012 26.8413L45.4362 24.0639C46.222 24.6864 47.1851 25.1962 48.3284 25.5905C49.4689 25.9847 50.6182 26.1833 51.7704 26.1833C53.1944 26.1833 54.2609 25.955 54.9641 25.4957C55.6672 25.0362 56.0187 24.4315 56.0187 23.6815C56.0187 23.1302 55.8209 22.6767 55.4279 22.3209C55.035 21.9623 54.5357 21.6835 53.933 21.482C53.3303 21.2804 52.509 21.0522 51.4661 20.7943C50.0036 20.4475 48.8218 20.0978 47.9149 19.748C47.0108 19.4012 46.2338 18.8528 45.5839 18.1117C44.9339 17.3676 44.6118 16.3657 44.6118 15.1C44.6118 14.0359 44.8985 13.0695 45.4745 12.1981C46.0506 11.3266 46.9192 10.6359 48.0774 10.1201C49.2384 9.60732 50.6596 9.34943 52.3406 9.34943C53.5105 9.34943 54.6598 9.49764 55.7943 9.78814C56.9287 10.0816 57.9066 10.5025 58.728 11.0539L57.6054 13.8314C56.7633 13.3363 55.8888 12.9599 54.973 12.7049C54.0601 12.4471 53.1737 12.3196 52.3139 12.3196C50.9076 12.3196 49.8619 12.5597 49.1764 13.034C48.491 13.5112 48.1482 14.1426 48.1482 14.9311C48.1482 15.4824 48.3433 15.93 48.7392 16.2798C49.1321 16.6295 49.6314 16.9023 50.2341 17.1038C50.8368 17.3055 51.661 17.5336 52.701 17.7916C54.125 18.1206 55.2949 18.4645 56.2109 18.8232C57.1238 19.1818 57.9066 19.7273 58.5537 20.4594C59.2037 21.1945 59.5257 22.1846 59.5257 23.4295C59.5257 24.4936 59.2391 25.4571 58.6629 26.3168C58.087 27.1794 57.2154 27.867 56.0454 28.3799C54.8754 28.8926 53.4484 29.1505 51.7674 29.1505C50.2872 29.1505 48.8573 28.9401 47.4776 28.5192Z" fill="white"/>
<path d="M51.7669 29.3015C50.2779 29.3015 48.8214 29.0852 47.4328 28.6613C46.0384 28.2344 44.9186 27.6624 44.1033 26.9538L44.0205 26.8828L45.3766 23.8296L45.5243 23.9482C46.2924 24.5588 47.2527 25.0627 48.3724 25.4511C49.492 25.8393 50.6325 26.035 51.764 26.035C53.1525 26.035 54.2014 25.8127 54.878 25.371C55.5427 24.9382 55.8648 24.3839 55.8648 23.6784C55.8648 23.1686 55.6875 22.7566 55.324 22.4274C54.9488 22.0866 54.4643 21.8139 53.8823 21.6182C53.2826 21.4197 52.4583 21.1885 51.4272 20.9335C49.9678 20.5866 48.7682 20.234 47.8583 19.8842C46.9365 19.5285 46.1329 18.9652 45.4711 18.2064C44.8005 17.4386 44.4608 16.3923 44.4608 15.0969C44.4608 14.0091 44.7591 13.0042 45.3501 12.112C45.938 11.2197 46.836 10.5053 48.0178 9.98067C49.1937 9.46193 50.6472 9.19812 52.3402 9.19812C53.516 9.19812 54.6889 9.34634 55.8323 9.64275C56.9756 9.93918 57.98 10.372 58.8103 10.9292L58.9107 10.9974L57.6757 14.0476L57.528 13.9616C56.7038 13.4755 55.8292 13.102 54.9312 12.8501C54.033 12.5981 53.1525 12.4706 52.3106 12.4706C50.9397 12.4706 49.9146 12.7018 49.2557 13.1583C48.6058 13.6089 48.2926 14.1899 48.2926 14.9338C48.2926 15.4438 48.4699 15.8498 48.8333 16.17C49.2084 16.505 49.696 16.7717 50.275 16.9644C50.8689 17.163 51.696 17.3942 52.7301 17.6491C54.1511 17.9782 55.3389 18.328 56.2576 18.6866C57.1883 19.0513 57.9949 19.6144 58.6596 20.3614C59.3302 21.1202 59.6699 22.1518 59.6699 23.4295C59.6699 24.5173 59.3716 25.5163 58.7808 26.3996C58.1928 27.283 57.2888 27.9943 56.0981 28.5161C54.9134 29.0348 53.4539 29.2986 51.7611 29.2986L51.7669 29.3015ZM44.3809 26.8027C45.1579 27.4519 46.2127 27.9825 47.5216 28.3797C48.8805 28.7946 50.3104 29.0051 51.7699 29.0051C53.4215 29.0051 54.8395 28.7502 55.9889 28.2463C57.1263 27.7483 57.986 27.0694 58.5443 26.2365C59.0998 25.4036 59.3834 24.461 59.3834 23.4324C59.3834 22.2288 59.0673 21.2626 58.4469 20.56C57.8176 19.8486 57.0464 19.3091 56.1602 18.9623C55.2562 18.6096 54.0803 18.2628 52.671 17.9367C51.6252 17.6788 50.792 17.4475 50.1893 17.246C49.5718 17.0385 49.0518 16.751 48.6442 16.3923C48.2187 16.0158 48.0061 15.5268 48.0061 14.9338C48.0061 14.098 48.3724 13.4192 49.0962 12.9153C49.8052 12.4232 50.8896 12.1742 52.3195 12.1742C53.1881 12.1742 54.095 12.3046 55.0197 12.5655C55.8884 12.8115 56.7363 13.1643 57.5369 13.6237L58.5503 11.116C57.7673 10.6091 56.8279 10.2119 55.7613 9.93621C54.6445 9.64868 53.4953 9.50047 52.3431 9.50047C50.6916 9.50047 49.2764 9.75539 48.1389 10.2593C47.0104 10.7573 46.1565 11.4391 45.5981 12.2809C45.0427 13.1228 44.7591 14.0713 44.7591 15.0999C44.7591 16.3211 45.0752 17.3023 45.6956 18.0137C46.3249 18.734 47.0901 19.2705 47.9676 19.6086C48.8658 19.9552 50.0534 20.3051 51.4982 20.6489C52.5381 20.9039 53.3712 21.1381 53.9769 21.3396C54.5973 21.5472 55.1173 21.8406 55.5249 22.2082C55.9475 22.5935 56.1631 23.0885 56.1631 23.6784C56.1631 24.4818 55.7849 25.1338 55.0404 25.617C54.3166 26.0883 53.2146 26.3284 51.7669 26.3284C50.6029 26.3284 49.43 26.1269 48.2779 25.7296C47.1966 25.3562 46.2599 24.876 45.4918 24.295L44.3809 26.7998V26.8027Z" fill="white"/>
<path d="M61.7204 11.175C61.3008 10.7808 61.0911 10.2917 61.0911 9.70477C61.0911 9.11785 61.3008 8.62874 61.7204 8.23451C62.1399 7.84026 62.6628 7.64166 63.2832 7.64166C63.9036 7.64166 64.4266 7.83137 64.8461 8.20487C65.2657 8.58132 65.4754 9.05263 65.4754 9.62177C65.4754 10.2265 65.2687 10.7363 64.8579 11.1483C64.4473 11.5604 63.9214 11.7679 63.2803 11.7679C62.6392 11.7679 62.137 11.5722 61.7174 11.175H61.7204ZM61.555 14.1867H64.982V28.8744H61.555V14.1896V14.1867Z" fill="white"/>
<path d="M65.1299 29.0254H61.4073V14.0412H65.1299V29.0254ZM61.7029 28.729H64.8345V14.3377H61.7029V28.729ZM63.2834 11.9159C62.6245 11.9159 62.0662 11.7024 61.6201 11.2845C61.171 10.8636 60.9435 10.333 60.9435 9.70455C60.9435 9.07613 61.171 8.54553 61.6201 8.12461C62.0662 7.70665 62.6276 7.49323 63.2834 7.49323C63.9393 7.49323 64.4977 7.6948 64.9437 8.09497C65.3959 8.49811 65.6233 9.01388 65.6233 9.62155C65.6233 10.2648 65.4017 10.8132 64.9644 11.2519C64.5273 11.6906 63.96 11.9129 63.2834 11.9129V11.9159ZM63.2834 7.78965C62.7044 7.78965 62.211 7.9764 61.821 8.34101C61.428 8.70857 61.236 9.15616 61.236 9.70455C61.236 10.2529 61.428 10.7005 61.821 11.0681C62.211 11.4327 62.7014 11.6194 63.2834 11.6194C63.8655 11.6194 64.3707 11.4297 64.7547 11.0444C65.1417 10.6561 65.3279 10.1907 65.3279 9.62155C65.3279 9.09392 65.1388 8.66411 64.7459 8.31432C64.3558 7.96454 63.8624 7.78669 63.2805 7.78669L63.2834 7.78965Z" fill="white"/>
<path d="M90.6976 15.6332C91.7759 16.7062 92.3166 18.3158 92.3166 20.462V28.8804H88.8894V20.9036C88.8894 19.6201 88.6058 18.6537 88.0386 18.0016C87.4714 17.3495 86.659 17.0265 85.5983 17.0265C84.4461 17.0265 83.5243 17.4059 82.83 18.1676C82.1356 18.9294 81.787 20.0144 81.787 21.4283V28.8833H78.36V20.9066C78.36 19.623 78.0764 18.6568 77.5092 18.0047C76.9418 17.3525 76.1294 17.0294 75.0688 17.0294C73.8988 17.0294 72.9711 17.4059 72.2858 18.1558C71.6002 18.9086 71.2576 19.9995 71.2576 21.4283V28.8833H67.8305V14.1896H71.0922V16.0601C71.6416 15.399 72.3271 14.8951 73.1484 14.5483C73.9697 14.1985 74.8855 14.0266 75.8901 14.0266C76.9862 14.0266 77.9612 14.2341 78.809 14.6462C79.6569 15.0582 80.3305 15.6688 80.8239 16.475C81.4267 15.7044 82.2037 15.1056 83.155 14.6728C84.1063 14.243 85.1551 14.0266 86.3073 14.0266C88.1538 14.0266 89.6163 14.5631 90.6946 15.6362L90.6976 15.6332Z" fill="white"/>
<path d="M92.461 29.0256H88.7384V20.9006C88.7384 19.6615 88.4636 18.7159 87.9258 18.0965C87.3911 17.4828 86.6083 17.1716 85.5977 17.1716C84.4958 17.1716 83.6006 17.5392 82.9388 18.2655C82.2742 18.9946 81.9374 20.0588 81.9374 21.4253V29.0285H78.2148V20.9035C78.2148 19.6644 77.9401 18.719 77.4022 18.0994C76.8675 17.4859 76.0847 17.1746 75.0742 17.1746C73.9545 17.1746 73.0534 17.5392 72.4005 18.2535C71.7446 18.9739 71.4107 20.0409 71.4107 21.4282V29.0314H67.6881V14.0414H71.2452V15.6717C71.7593 15.1351 72.3799 14.7113 73.0977 14.4089C73.9339 14.0532 74.8763 13.8754 75.8956 13.8754C77.0094 13.8754 78.0139 14.0888 78.8795 14.5097C79.689 14.9039 80.3478 15.479 80.8441 16.22C81.4409 15.5116 82.1972 14.9454 83.0983 14.5364C84.0644 14.0977 85.1457 13.8754 86.3128 13.8754C88.1888 13.8754 89.7015 14.4326 90.8035 15.5264C91.9055 16.6233 92.4639 18.2831 92.4639 20.4589V29.0256H92.461ZM89.0338 28.7292H92.1654V20.4589C92.1654 18.3632 91.6366 16.7744 90.5907 15.7369C89.5449 14.6965 88.1062 14.1718 86.3098 14.1718C85.1842 14.1718 84.1443 14.3852 83.2166 14.8061C82.2918 15.2241 81.5266 15.8169 80.9417 16.5639L80.8116 16.73L80.6995 16.5492C80.2237 15.7694 79.5648 15.1737 78.7465 14.7765C77.9223 14.3763 76.9591 14.1718 75.8925 14.1718C74.9117 14.1718 74.0106 14.3437 73.207 14.6816C72.4093 15.0195 71.7386 15.5146 71.2069 16.1519L70.9469 16.4662V14.3348H67.9806V28.7261H71.1124V21.4193C71.1124 19.9579 71.4699 18.8227 72.1788 18.0461C72.8909 17.2665 73.8629 16.8693 75.0712 16.8693C76.1703 16.8693 77.0301 17.2161 77.6238 17.8979C78.2117 18.5737 78.5102 19.5845 78.5102 20.8977V28.7261H81.6418V21.4193C81.6418 19.9758 82.0052 18.8464 82.7231 18.0608C83.444 17.2723 84.4132 16.8722 85.6008 16.8722C86.6997 16.8722 87.5595 17.219 88.1534 17.9008C88.7413 18.5766 89.0398 19.5874 89.0398 20.9006V28.7292H89.0338Z" fill="white"/>
<path d="M106.997 14.9574C108.12 15.5798 109.003 16.4603 109.644 17.5985C110.282 18.7368 110.604 20.047 110.604 21.5321C110.604 23.0172 110.285 24.3333 109.644 25.4804C109.003 26.6276 108.122 27.511 106.997 28.1363C105.874 28.7588 104.598 29.0701 103.174 29.0701C101.2 29.0701 99.6375 28.4091 98.4853 27.09V34.213H95.0581V14.1896H98.3198V16.1164C98.887 15.4198 99.5842 14.898 100.417 14.5483C101.251 14.1985 102.166 14.0266 103.174 14.0266C104.598 14.0266 105.874 14.3379 106.997 14.9603V14.9574ZM105.901 24.8609C106.713 24.0161 107.121 22.9074 107.121 21.5321C107.121 20.1566 106.713 19.0481 105.901 18.2031C105.088 17.3613 104.051 16.9375 102.79 16.9375C101.969 16.9375 101.227 17.1272 100.568 17.5007C99.9092 17.8771 99.3893 18.4136 99.0052 19.1103C98.6212 19.8069 98.429 20.6131 98.429 21.5321C98.429 22.451 98.6212 23.2573 99.0052 23.9539C99.3893 24.6504 99.9092 25.187 100.568 25.5635C101.227 25.9398 101.965 26.1266 102.79 26.1266C104.051 26.1266 105.088 25.7057 105.901 24.8609Z" fill="white"/>
<path d="M98.6299 34.361H94.9073V14.0412H98.4644V15.7219C98.9963 15.1557 99.6314 14.7171 100.358 14.4117C101.203 14.056 102.151 13.8782 103.171 13.8782C104.615 13.8782 105.924 14.1983 107.068 14.8327C108.211 15.467 109.121 16.374 109.771 17.5301C110.421 18.6862 110.749 20.032 110.749 21.5378C110.749 23.0436 110.421 24.3952 109.771 25.5573C109.121 26.7222 108.211 27.6352 107.068 28.2695C105.927 28.9009 104.615 29.224 103.171 29.224C101.307 29.224 99.7791 28.6341 98.6299 27.4721V34.3669V34.361ZM95.2028 34.0646H98.3345V26.6956L98.5944 26.992C99.7112 28.2724 101.25 28.9216 103.171 28.9216C104.565 28.9216 105.827 28.6134 106.923 28.0057C108.016 27.398 108.888 26.5266 109.511 25.409C110.134 24.2915 110.45 22.9872 110.45 21.5347C110.45 20.0822 110.134 18.784 109.511 17.6754C108.888 16.5697 108.016 15.6982 106.923 15.0905C105.827 14.4829 104.562 14.1746 103.171 14.1746C102.19 14.1746 101.283 14.3465 100.473 14.6874C99.6669 15.0253 98.9814 15.5382 98.4349 16.2111L98.1719 16.5341V14.3406H95.2057V34.0646H95.2028ZM102.787 26.2746C101.942 26.2746 101.171 26.0789 100.494 25.6906C99.8147 25.3023 99.271 24.7421 98.8751 24.0247C98.4822 23.3074 98.2812 22.4714 98.2812 21.5318C98.2812 20.5922 98.4822 19.7562 98.8751 19.0389C99.271 18.3215 99.8147 17.7613 100.494 17.373C101.174 16.9847 101.945 16.7891 102.787 16.7891C104.084 16.7891 105.165 17.2308 106.004 18.0992C106.84 18.9678 107.266 20.1208 107.266 21.5318C107.266 22.9428 106.84 24.0959 106.004 24.9644C105.165 25.833 104.084 26.2746 102.787 26.2746ZM102.787 17.0884C101.995 17.0884 101.271 17.2721 100.639 17.6339C100.007 17.9955 99.5015 18.5172 99.1322 19.1871C98.7628 19.8599 98.5737 20.6484 98.5737 21.5347C98.5737 22.4211 98.7599 23.2126 99.1322 23.8824C99.5015 24.5524 100.007 25.0741 100.639 25.4357C101.271 25.7973 101.995 25.9812 102.787 25.9812C104.001 25.9812 105.011 25.5721 105.791 24.7599C106.574 23.9477 106.97 22.8628 106.97 21.5347C106.97 20.2068 106.574 19.1219 105.791 18.3097C105.011 17.5004 103.998 17.0884 102.787 17.0884Z" fill="white"/>
<path d="M112.917 8.46594H116.344V28.8777H112.917V8.46594Z" fill="white"/>
<path d="M116.492 29.0256H112.77V8.3175H116.492V29.0256ZM113.065 28.7292H116.197V8.61392H113.065V28.7292Z" fill="white"/>
<path d="M134.887 14.1894L128.032 30.0599C127.391 31.6547 126.614 32.7782 125.701 33.4303C124.788 34.0794 123.681 34.4055 122.383 34.4055C121.654 34.4055 120.93 34.2869 120.218 34.0468C119.506 33.8098 118.921 33.4777 118.463 33.0568L119.834 30.5254C120.162 30.8365 120.552 31.0856 120.998 31.2693C121.447 31.4532 121.899 31.545 122.354 31.545C122.957 31.545 123.456 31.388 123.849 31.0767C124.242 30.7654 124.602 30.2408 124.933 29.5086L125.178 28.9305L118.791 14.1865H122.354L126.96 25.0503L131.592 14.1865H134.884L134.887 14.1894Z" fill="white"/>
<path d="M122.387 34.554C121.642 34.554 120.897 34.4325 120.174 34.1895C119.444 33.9463 118.835 33.6025 118.365 33.1667L118.28 33.0897L119.798 30.2885L119.937 30.4219C120.253 30.7213 120.629 30.9585 121.057 31.1362C121.485 31.3111 121.923 31.4001 122.357 31.4001C122.921 31.4001 123.394 31.2549 123.76 30.9643C124.133 30.6679 124.481 30.1611 124.8 29.4526L125.022 28.9369L118.569 14.0445H122.457L126.966 24.6801L131.501 14.0445H135.114L128.171 30.1225C127.524 31.7321 126.724 32.8881 125.79 33.555C124.853 34.2221 123.71 34.56 122.387 34.56V34.554ZM118.652 33.0245C119.08 33.395 119.621 33.6914 120.268 33.9079C120.962 34.1391 121.674 34.2576 122.387 34.2576C123.645 34.2576 124.732 33.9375 125.619 33.3091C126.505 32.6777 127.27 31.566 127.896 30.0039L134.662 14.335H131.696L126.966 25.4301L122.262 14.335H119.021L125.344 28.9309L125.072 29.5681C124.732 30.324 124.354 30.8695 123.946 31.1926C123.527 31.5245 122.995 31.6935 122.36 31.6935C121.887 31.6935 121.412 31.5986 120.948 31.406C120.549 31.243 120.188 31.0266 119.878 30.7628L118.652 33.0245Z" fill="white"/>
<path d="M147.129 24.4224H137.533L135.643 28.8776H131.967L140.603 9.62201H144.113L152.775 28.8776H149.047L147.126 24.4224H147.129ZM145.95 21.6152L142.331 13.1998L138.739 21.6152H145.948H145.95Z" fill="white"/>
<path d="M153.005 29.0257H148.953L147.031 24.5705H137.631L135.74 29.0257H131.74L140.508 9.47357H144.207L153.005 29.0257ZM149.144 28.7293H152.548L144.018 9.77H140.7L132.198 28.7293H135.545L137.436 24.2739H147.227L149.146 28.7293H149.144ZM146.175 21.7633H138.517L142.331 12.8232L146.175 21.7633ZM138.963 21.4669H145.726L142.331 13.5731L138.963 21.4669Z" fill="white"/>
<path d="M156.979 28.6017C155.844 28.2904 154.941 27.8962 154.264 27.4189L155.579 24.8074C156.238 25.2462 157.026 25.6019 157.951 25.8657C158.873 26.1324 159.783 26.2659 160.678 26.2659C162.726 26.2659 163.748 25.7263 163.748 24.6445C163.748 24.1316 163.488 23.7729 162.968 23.5714C162.447 23.3699 161.611 23.1771 160.459 22.9934C159.254 22.8095 158.27 22.599 157.511 22.362C156.752 22.1248 156.093 21.7069 155.537 21.111C154.979 20.5152 154.701 19.6852 154.701 18.621C154.701 17.2279 155.281 16.1133 156.442 15.2804C157.603 14.4474 159.168 14.0295 161.142 14.0295C162.146 14.0295 163.151 14.1451 164.158 14.3733C165.163 14.6016 165.987 14.9099 166.625 15.2951L165.31 17.9097C164.067 17.1775 162.669 16.8099 161.115 16.8099C160.111 16.8099 159.349 16.9612 158.826 17.2634C158.306 17.5658 158.045 17.966 158.045 18.461C158.045 19.0124 158.324 19.4006 158.881 19.6289C159.439 19.8572 160.303 20.0735 161.473 20.2752C162.643 20.4589 163.603 20.6694 164.35 20.9066C165.1 21.1436 165.745 21.5498 166.283 22.1159C166.82 22.685 167.091 23.4913 167.091 24.5376C167.091 25.9131 166.499 27.0129 165.31 27.8398C164.123 28.6638 162.504 29.0789 160.459 29.0789C159.272 29.0789 158.111 28.9218 156.979 28.6105V28.6017Z" fill="white"/>
<path d="M160.459 29.218C159.263 29.218 158.079 29.058 156.938 28.7438C155.792 28.4295 154.864 28.0235 154.178 27.5403L154.076 27.4662L155.522 24.5909L155.662 24.6827C156.306 25.1126 157.088 25.4625 157.993 25.7232C158.896 25.9841 159.801 26.1175 160.681 26.1175C162.619 26.1175 163.603 25.6225 163.603 24.6443C163.603 24.1937 163.378 23.8884 162.918 23.7105C162.41 23.515 161.576 23.3222 160.439 23.1414C159.234 22.9577 158.235 22.7441 157.47 22.5042C156.689 22.258 156.005 21.8253 155.431 21.2117C154.849 20.5922 154.554 19.7177 154.554 18.621C154.554 17.1833 155.16 16.0183 156.356 15.1588C157.538 14.311 159.148 13.8782 161.145 13.8782C162.156 13.8782 163.18 13.9938 164.194 14.225C165.211 14.4562 166.056 14.7734 166.705 15.1646L166.823 15.2358L165.375 18.114L165.24 18.034C164.025 17.3167 162.64 16.955 161.122 16.955C160.146 16.955 159.402 17.1003 158.906 17.3878C158.43 17.6635 158.2 18.0133 158.2 18.455C158.2 18.944 158.442 19.2819 158.944 19.4865C159.487 19.7117 160.35 19.9253 161.505 20.1238C162.675 20.3076 163.651 20.521 164.404 20.7611C165.171 21.0071 165.846 21.4251 166.398 22.009C166.962 22.6049 167.249 23.4527 167.249 24.5316C167.249 25.9515 166.628 27.1046 165.402 27.9553C164.194 28.7942 162.533 29.218 160.465 29.218H160.459ZM154.453 27.3714C155.1 27.8041 155.962 28.1717 157.018 28.4592C158.131 28.7676 159.289 28.9216 160.459 28.9216C162.465 28.9216 164.07 28.5125 165.228 27.7093C166.369 26.9179 166.947 25.8477 166.947 24.5316C166.947 23.5297 166.691 22.7501 166.18 22.2136C165.659 21.6652 165.03 21.2709 164.309 21.0428C163.571 20.8085 162.611 20.598 161.453 20.4143C160.274 20.2128 159.393 19.9905 158.829 19.7592C158.214 19.5073 157.901 19.0656 157.901 18.452C157.901 17.9035 158.188 17.456 158.755 17.127C159.295 16.8128 160.091 16.6527 161.119 16.6527C162.634 16.6527 164.022 17.0025 165.252 17.6961L166.433 15.3485C165.828 15.0046 165.053 14.726 164.128 14.5125C163.136 14.2872 162.134 14.1716 161.145 14.1716C159.212 14.1716 157.659 14.5837 156.53 15.3958C155.416 16.1962 154.852 17.2811 154.852 18.6179C154.852 19.6376 155.12 20.4411 155.651 21.0071C156.188 21.5822 156.829 21.9884 157.562 22.2195C158.309 22.4537 159.295 22.6671 160.487 22.8479C161.645 23.0318 162.498 23.2303 163.027 23.4349C163.608 23.6601 163.901 24.0662 163.901 24.6472C163.901 25.8211 162.82 26.4168 160.685 26.4168C159.777 26.4168 158.847 26.2805 157.916 26.0138C157.048 25.7647 156.286 25.4328 155.643 25.0266L154.459 27.3772L154.453 27.3714Z" fill="white"/>
<path d="M175.087 22.5786L172.538 25.0005V28.8777H169.11V8.46594H172.538V20.7882L179.636 14.1869H183.75L177.636 20.3496L184.326 28.8777H180.159L175.087 22.5786Z" fill="white"/>
<path d="M184.63 29.0256H180.089L175.073 22.7949L172.685 25.0625V29.0256H168.962V8.3175H172.685V20.4501L179.581 14.0385H184.107L177.835 20.3582L184.63 29.0227V29.0256ZM180.228 28.7292H184.021L177.438 20.3375L183.395 14.3349H179.696L172.389 21.1289V8.61392H169.258V28.7292H172.389V24.935L175.102 22.3591L180.231 28.7292H180.228Z" fill="white"/>
<path d="M9.75272 26.663C9.59613 26.663 9.43659 26.6481 9.28001 26.6184C8.62118 26.491 8.03326 26.0908 7.66691 25.5247C6.27538 23.3608 5.56927 21.1584 5.56927 18.9766C5.56927 11.9751 11.2477 6.27789 18.226 6.27789C24.569 6.27789 29.9668 11.0444 30.7792 17.3641C30.8915 18.2445 30.2711 19.0508 29.3936 19.1665C28.5131 19.2819 27.7125 18.6565 27.5973 17.7761C26.9887 13.0541 22.9589 9.49408 18.2231 9.49408C13.0114 9.49408 8.77186 13.7478 8.77186 18.9766C8.77186 20.3255 9.17366 21.7215 9.96839 23.1356L11.7617 21.8697C10.5386 18.9915 11.3304 15.642 13.8682 13.4098L14.0484 13.2705C16.4769 11.6846 19.3369 11.5038 21.7063 12.7933C24.0225 14.0531 25.4612 16.466 25.4612 19.0893C25.4612 20.0735 25.2604 21.0368 24.8764 21.932L27.3994 23.7431C28.1203 24.2589 28.2858 25.2638 27.7717 25.987C27.2576 26.7103 26.256 26.8764 25.5351 26.3606L22.1878 23.9596C21.3044 23.3253 21.0651 22.1158 21.6443 21.2028C22.0431 20.5714 22.2558 19.8423 22.2558 19.0922C22.2558 17.6517 21.4581 16.3236 20.1788 15.6241C18.87 14.9126 17.316 15.0195 15.895 15.9087C14.0661 17.5835 14.1193 19.7503 14.9997 21.1702C15.5729 22.0951 15.3158 23.3074 14.4177 23.9328L11.1856 26.2153C10.7631 26.5117 10.2579 26.6688 9.74976 26.6688L9.75272 26.663ZM12.5889 21.2888C12.5889 21.2888 12.5801 21.2947 12.5771 21.2977L12.5889 21.2888Z" fill="url(#paint0_linear_11_20)"/>
<path d="M31.878 37.2693C31.6328 37.2693 31.3877 37.2308 31.1454 37.1536L25.981 35.461C23.5555 36.6142 20.8699 37.2219 18.1843 37.2219C8.15712 37.2248 0 29.0406 0 18.98C0 17.1421 0.277714 15.3221 0.82428 13.5732C1.00154 13.01 1.2054 12.4498 1.43584 11.9043C1.78151 11.0862 2.72396 10.7068 3.53939 11.0536C4.3548 11.4004 4.73296 12.346 4.3873 13.1641C4.19822 13.6117 4.02685 14.0742 3.88209 14.5366C3.43302 15.9742 3.20553 17.4682 3.20553 18.98C3.20553 27.2679 9.92385 34.0086 18.1843 34.0086C20.4917 34.0086 22.8021 33.4633 24.8643 32.4317C25.4226 32.153 26.0548 32.1056 26.6428 32.2983L30.6343 33.6055L29.6889 30.1581C29.4967 29.4556 29.6446 28.6849 30.0906 28.098C31.9725 25.6258 33.0302 22.6735 33.1514 19.5639C33.1868 18.6776 33.9284 17.984 34.8147 18.0196C35.6982 18.0551 36.3894 18.8021 36.354 19.6884C36.2122 23.3225 35.0186 26.7789 32.8914 29.7105L34.1471 34.2813C34.3775 35.1202 34.1293 36.0154 33.5029 36.6171C33.0569 37.044 32.4748 37.2693 31.878 37.2693Z" fill="url(#paint1_linear_11_20)"/>
<path d="M33.0066 13.2382C32.4156 13.2382 31.8455 12.9092 31.5678 12.34C29.5056 8.14267 25.5408 5.10729 20.9615 4.22099C16.6539 3.39101 12.2164 4.48778 8.78635 7.23266C8.09503 7.78696 7.08461 7.67432 6.5351 6.97773C5.98262 6.28409 6.09489 5.27033 6.78918 4.71899C10.949 1.38422 16.3378 0.0503161 21.5671 1.06112C27.1273 2.13417 31.9429 5.81871 34.4454 10.9172C34.8354 11.7146 34.5104 12.678 33.7156 13.0692C33.4882 13.1819 33.246 13.2352 33.0095 13.2352L33.0066 13.2382Z" fill="url(#paint2_linear_11_20)"/>
</g>
<defs>
<linearGradient id="paint0_linear_11_20" x1="26.6904" y1="27.1076" x2="9.40598" y2="9.88052" gradientUnits="userSpaceOnUse">
<stop stop-color="#F05523"/>
<stop offset="1" stop-color="#F9A619"/>
</linearGradient>
<linearGradient id="paint1_linear_11_20" x1="32.7555" y1="37.3672" x2="4.23084" y2="8.93702" gradientUnits="userSpaceOnUse">
<stop stop-color="#F05523"/>
<stop offset="1" stop-color="#F9A619"/>
</linearGradient>
<linearGradient id="paint2_linear_11_20" x1="29.5529" y1="17.3704" x2="11.8002" y2="-0.32351" gradientUnits="userSpaceOnUse">
<stop stop-color="#F05523"/>
<stop offset="1" stop-color="#F9A619"/>
</linearGradient>
<clipPath id="clip0_11_20">
<rect width="185" height="38" fill="white"/>
</clipPath>
</defs>
</svg>
